#include "../../Engine/hUGEDriver.h"
#include <stddef.h>

static const unsigned char order_cnt = 24;

static const unsigned char P0[] = {
    DN(C_7,2,0xC03),
    DN(___,0,0x000),
    DN(G_7,2,0xC03),
    DN(___,0,0x000),
    DN(B_7,2,0xC03),
    DN(___,0,0x000),
    DN(G_7,2,0xC03),
    DN(___,0,0x000),
    DN(C_7,2,0xC03),
    DN(___,0,0x000),
    DN(Fs7,2,0xC03),
    DN(___,0,0x000),
    DN(B_7,2,0xC03),
    DN(___,0,0x000),
    DN(Fs7,2,0xC03),
    DN(___,0,0x000),
    DN(C_7,2,0xC03),
    DN(___,0,0x000),
    DN(G_7,2,0xC03),
    DN(___,0,0x000),
    DN(B_7,2,0xC03),
    DN(___,0,0x000),
    DN(G_7,2,0xC03),
    DN(___,0,0x000),
    DN(C_7,2,0xC03),
    DN(___,0,0x000),
    DN(Fs7,2,0xC03),
    DN(___,0,0x000),
    DN(B_7,2,0xC03),
    DN(___,0,0x000),
    DN(Fs7,2,0xC03),
    DN(___,0,0x000),
    DN(C_7,2,0xC03),
    DN(___,0,0x000),
    DN(G_7,2,0xC03),
    DN(___,0,0x000),
    DN(B_7,2,0xC03),
    DN(___,0,0x000),
    DN(G_7,2,0xC03),
    DN(___,0,0x000),
    DN(C_7,2,0xC03),
    DN(___,0,0x000),
    DN(F_7,2,0xC03),
    DN(___,0,0x000),
    DN(B_7,2,0xC03),
    DN(___,0,0x000),
    DN(Fs7,2,0xC03),
    DN(___,0,0x000),
    DN(C_7,2,0xC03),
    DN(___,0,0x000),
    DN(G_7,2,0xC03),
    DN(___,0,0x000),
    DN(B_7,2,0xC03),
    DN(___,0,0x000),
    DN(Fs7,2,0xC03),
    DN(___,0,0x000),
    DN(C_7,2,0xC03),
    DN(___,0,0x000),
    DN(G_7,2,0xC03),
    DN(___,0,0x000),
    DN(B_7,2,0xC03),
    DN(___,0,0x000),
    DN(Fs7,2,0xC03),
    DN(___,0,0x000),
};
static const unsigned char P1[] = {
    DN(C_6,1,0xC05),
    DN(___,0,0x000),
    DN(___,0,0x000),
    DN(___,0,0x000),
    DN(C_6,1,0xC05),
    DN(___,0,0x000),
    DN(___,0,0x000),
    DN(___,0,0x000),
    DN(Cs6,1,0xC05),
    DN(___,0,0x000),
    DN(___,0,0x000),
    DN(___,0,0x000),
    DN(D_6,1,0xC05),
    DN(___,0,0x000),
    DN(___,0,0x000),
    DN(___,0,0x000),
    DN(C_6,1,0xC05),
    DN(___,0,0x000),
    DN(___,0,0x000),
    DN(___,0,0x000),
    DN(C_6,1,0xC05),
    DN(___,0,0x000),
    DN(___,0,0x000),
    DN(___,0,0x000),
    DN(Cs6,1,0xC05),
    DN(___,0,0x000),
    DN(___,0,0x000),
    DN(___,0,0x000),
    DN(D_6,1,0xC05),
    DN(___,0,0x000),
    DN(___,0,0x000),
    DN(___,0,0x000),
    DN(C_6,1,0xC05),
    DN(___,0,0x000),
    DN(___,0,0x000),
    DN(___,0,0x000),
    DN(C_6,1,0xC05),
    DN(___,0,0x000),
    DN(___,0,0x000),
    DN(___,0,0x000),
    DN(Cs6,1,0xC05),
    DN(___,0,0x000),
    DN(___,0,0x000),
    DN(___,0,0x000),
    DN(D_6,1,0xC04),
    DN(___,0,0x000),
    DN(___,0,0x000),
    DN(___,0,0x000),
    DN(C_6,1,0xC04),
    DN(___,0,0x000),
    DN(___,0,0x000),
    DN(___,0,0x000),
    DN(C_6,1,0xC04),
    DN(___,0,0x000),
    DN(___,0,0x000),
    DN(___,0,0x000),
    DN(Cs6,1,0xC04),
    DN(___,0,0x000),
    DN(___,0,0x000),
    DN(___,0,0x000),
    DN(D_6,1,0xC04),
    DN(___,0,0x000),
    DN(___,0,0x000),
    DN(___,0,0x000),
};
static const unsigned char P2[] = {
    DN(C_4,11,0x000),
    DN(___,0,0x000),
    DN(___,0,0x000),
    DN(___,0,0x000),
    DN(___,0,0x000),
    DN(___,0,0x000),
    DN(___,0,0x000),
    DN(___,0,0x000),
    DN(___,0,0x000),
    DN(___,0,0x000),
    DN(___,0,0x000),
    DN(___,0,0x000),
    DN(___,0,0x000),
    DN(___,0,0x000),
    DN(___,0,0x000),
    DN(___,0,0x000),
    DN(F_3,11,0x000),
    DN(___,0,0x000),
    DN(___,0,0x000),
    DN(___,0,0x000),
    DN(___,0,0x000),
    DN(___,0,0x000),
    DN(___,0,0x000),
    DN(___,0,0x000),
    DN(___,0,0x000),
    DN(___,0,0x000),
    DN(___,0,0x000),
    DN(___,0,0x000),
    DN(___,0,0x000),
    DN(___,0,0x000),
    DN(___,0,0x000),
    DN(___,0,0x000),
    DN(Ds4,11,0x000),
    DN(___,0,0x000),
    DN(___,0,0x000),
    DN(___,0,0x000),
    DN(___,0,0x000),
    DN(___,0,0x000),
    DN(___,0,0x000),
    DN(___,0,0x000),
    DN(C_4,11,0x000),
    DN(___,0,0x000),
    DN(___,0,0x000),
    DN(___,0,0x000),
    DN(___,0,0x000),
    DN(___,0,0x000),
    DN(___,0,0x000),
    DN(___,0,0x000),
    DN(G_3,11,0x000),
    DN(___,0,0x000),
    DN(___,0,0x000),
    DN(___,0,0x000),
    DN(___,0,0x000),
    DN(___,0,0x000),
    DN(___,0,0x000),
    DN(___,0,0x000),
    DN(Fs3,11,0x000),
    DN(___,0,0x000),
    DN(___,0,0x000),
    DN(D_3,11,0x000),
    DN(___,0,0x000),
    DN(___,0,0x000),
    DN(___,0,0x000),
    DN(___,0,0x000),
};
static const unsigned char P3[] = {
    DN(A_5,1,0x000),
    DN(___,0,0x000),
    DN(___,0,0x000),
    DN(A_5,1,0x000),
    DN(___,0,0x000),
    DN(___,0,0x000),
    DN(A_5,1,0x000),
    DN(___,0,0x000),
    DN(___,0,0x000),
    DN(___,0,0x000),
    DN(A_5,1,0x000),
    DN(___,0,0x000),
    DN(___,0,0x000),
    DN(A_5,1,0x000),
    DN(___,0,0x000),
    DN(___,0,0x000),
    DN(A_5,1,0x000),
    DN(___,0,0x000),
    DN(___,0,0x000),
    DN(A_5,1,0x000),
    DN(___,0,0x000),
    DN(___,0,0x000),
    DN(A_5,1,0x000),
    DN(___,0,0x000),
    DN(___,0,0x000),
    DN(___,0,0x000),
    DN(A_5,1,0x000),
    DN(___,0,0x000),
    DN(___,0,0x000),
    DN(A_5,1,0x000),
    DN(___,0,0x000),
    DN(___,0,0x000),
    DN(A_5,1,0x000),
    DN(___,0,0x000),
    DN(___,0,0x000),
    DN(A_5,1,0x000),
    DN(___,0,0x000),
    DN(___,0,0x000),
    DN(A_5,1,0x000),
    DN(___,0,0x000),
    DN(___,0,0x000),
    DN(___,0,0x000),
    DN(A_5,1,0x000),
    DN(___,0,0x000),
    DN(___,0,0x000),
    DN(A_5,1,0x000),
    DN(A_5,1,0x000),
    DN(___,0,0x000),
    DN(A_5,1,0x000),
    DN(___,0,0x000),
    DN(___,0,0x000),
    DN(A_5,1,0x000),
    DN(___,0,0x000),
    DN(___,0,0x000),
    DN(A_5,1,0x000),
    DN(___,0,0x000),
    DN(___,0,0x000),
    DN(___,0,0x000),
    DN(A_5,1,0x000),
    DN(___,0,0x000),
    DN(___,0,0x000),
    DN(A_5,1,0x000),
    DN(___,0,0x000),
    DN(___,0,0x000),
};
static const unsigned char P4[] = {
    DN(C_7,2,0xC03),
    DN(___,0,0x000),
    DN(___,0,0xC03),
    DN(___,0,0x000),
    DN(B_7,2,0xC03),
    DN(___,0,0x000),
    DN(___,0,0xC03),
    DN(___,0,0x000),
    DN(C_7,2,0xC03),
    DN(___,0,0x000),
    DN(___,0,0x000),
    DN(___,0,0x000),
    DN(B_7,2,0xC03),
    DN(___,0,0x000),
    DN(___,0,0x000),
    DN(___,0,0x000),
    DN(C_7,2,0xC03),
    DN(___,0,0x000),
    DN(___,0,0x000),
    DN(___,0,0x000),
    DN(B_7,2,0xC03),
    DN(___,0,0x000),
    DN(___,0,0x000),
    DN(___,0,0x000),
    DN(C_7,2,0xC03),
    DN(___,0,0x000),
    DN(___,0,0x000),
    DN(___,0,0x000),
    DN(B_7,2,0xC03),
    DN(___,0,0x000),
    DN(___,0,0x000),
    DN(___,0,0x000),
    DN(C_7,2,0xC03),
    DN(___,0,0x000),
    DN(___,0,0x000),
    DN(___,0,0x000),
    DN(B_7,2,0xC03),
    DN(___,0,0x000),
    DN(___,0,0x000),
    DN(___,0,0x000),
    DN(C_7,2,0xC03),
    DN(___,0,0x000),
    DN(___,0,0x000),
    DN(___,0,0x000),
    DN(B_7,2,0xC03),
    DN(___,0,0x000),
    DN(___,0,0x000),
    DN(___,0,0x000),
    DN(C_7,2,0xC03),
    DN(___,0,0x000),
    DN(___,0,0x000),
    DN(___,0,0x000),
    DN(B_7,2,0xC03),
    DN(___,0,0x000),
    DN(___,0,0x000),
    DN(___,0,0x000),
    DN(C_7,2,0xC03),
    DN(___,0,0x000),
    DN(___,0,0x000),
    DN(___,0,0x000),
    DN(B_7,2,0xC03),
    DN(___,0,0x000),
    DN(___,0,0x000),
    DN(___,0,0x000),
};
static const unsigned char P5[] = {
    DN(C_6,1,0xC05),
    DN(___,0,0x000),
    DN(C_6,1,0xC05),
    DN(___,0,0x000),
    DN(C_6,1,0xC05),
    DN(___,0,0x000),
    DN(Cs6,1,0xC05),
    DN(___,0,0x000),
    DN(Cs6,1,0xC05),
    DN(___,0,0x000),
    DN(Cs6,1,0xC05),
    DN(___,0,0x000),
    DN(D_6,1,0xC05),
    DN(___,0,0x000),
    DN(D_6,1,0xC05),
    DN(___,0,0x000),
    DN(C_6,1,0xC05),
    DN(___,0,0x000),
    DN(C_6,1,0xC05),
    DN(___,0,0x000),
    DN(C_6,1,0xC05),
    DN(___,0,0x000),
    DN(Cs6,1,0xC05),
    DN(___,0,0x000),
    DN(Cs6,1,0xC05),
    DN(___,0,0x000),
    DN(Cs6,1,0xC05),
    DN(___,0,0x000),
    DN(D_6,1,0xC05),
    DN(___,0,0x000),
    DN(D_6,1,0xC05),
    DN(___,0,0x000),
    DN(C_6,1,0xC05),
    DN(___,0,0x000),
    DN(C_6,1,0xC05),
    DN(___,0,0x000),
    DN(C_6,1,0xC05),
    DN(___,0,0x000),
    DN(Cs6,1,0xC05),
    DN(___,0,0x000),
    DN(Cs6,1,0xC05),
    DN(___,0,0x000),
    DN(Cs6,1,0xC05),
    DN(___,0,0x000),
    DN(D_6,1,0xC04),
    DN(___,0,0x000),
    DN(D_6,1,0xC04),
    DN(___,0,0x000),
    DN(C_6,1,0xC04),
    DN(___,0,0x000),
    DN(C_6,1,0xC04),
    DN(___,0,0x000),
    DN(C_6,1,0xC04),
    DN(___,0,0x000),
    DN(Cs6,1,0xC04),
    DN(___,0,0x000),
    DN(Cs6,1,0xC04),
    DN(___,0,0x000),
    DN(Cs6,1,0xC04),
    DN(___,0,0x000),
    DN(D_6,1,0xC04),
    DN(___,0,0x000),
    DN(D_6,1,0xC04),
    DN(___,0,0x000),
};
static const unsigned char P6[] = {
    DN(C_4,11,0x000),
    DN(___,0,0x000),
    DN(___,0,0x000),
    DN(___,0,0x000),
    DN(___,0,0x000),
    DN(___,0,0x000),
    DN(___,0,0x000),
    DN(___,0,0x000),
    DN(___,0,0x000),
    DN(___,0,0x000),
    DN(___,0,0x000),
    DN(___,0,0x000),
    DN(___,0,0x000),
    DN(___,0,0x000),
    DN(___,0,0x000),
    DN(___,0,0x000),
    DN(C_4,11,0x000),
    DN(___,0,0x000),
    DN(___,0,0x000),
    DN(___,0,0x000),
    DN(___,0,0x000),
    DN(___,0,0x000),
    DN(___,0,0x000),
    DN(___,0,0x000),
    DN(___,0,0x000),
    DN(___,0,0x000),
    DN(___,0,0x000),
    DN(___,0,0x000),
    DN(___,0,0x000),
    DN(___,0,0x000),
    DN(___,0,0x000),
    DN(___,0,0x000),
    DN(Gs3,11,0x000),
    DN(___,0,0x000),
    DN(___,0,0x000),
    DN(___,0,0x000),
    DN(___,0,0x000),
    DN(___,0,0x000),
    DN(___,0,0x000),
    DN(___,0,0x000),
    DN(___,0,0x000),
    DN(___,0,0x000),
    DN(___,0,0x000),
    DN(___,0,0x000),
    DN(___,0,0x000),
    DN(___,0,0x000),
    DN(___,0,0x000),
    DN(___,0,0x000),
    DN(Gs3,11,0x000),
    DN(___,0,0x000),
    DN(___,0,0x000),
    DN(___,0,0x000),
    DN(___,0,0x000),
    DN(___,0,0x000),
    DN(___,0,0x000),
    DN(___,0,0x000),
    DN(___,0,0x000),
    DN(___,0,0x000),
    DN(___,0,0x000),
    DN(___,0,0x000),
    DN(___,0,0x000),
    DN(___,0,0x000),
    DN(___,0,0x000),
    DN(___,0,0x000),
};
static const unsigned char P7[] = {
    DN(C_5,1,0x000),
    DN(___,0,0x000),
    DN(C_5,1,0x000),
    DN(___,0,0x000),
    DN(C_5,1,0x000),
    DN(___,0,0x000),
    DN(C_5,1,0x000),
    DN(___,0,0x000),
    DN(C_5,7,0x000),
    DN(___,0,0x000),
    DN(C_5,1,0x000),
    DN(___,0,0x000),
    DN(C_5,1,0x000),
    DN(___,0,0x000),
    DN(C_5,1,0x000),
    DN(___,0,0x000),
    DN(C_5,1,0x000),
    DN(C_5,1,0x000),
    DN(C_5,1,0x000),
    DN(___,0,0x000),
    DN(C_5,1,0x000),
    DN(___,0,0x000),
    DN(C_5,1,0x000),
    DN(___,0,0x000),
    DN(C_5,7,0x000),
    DN(___,0,0x000),
    DN(C_5,1,0x000),
    DN(___,0,0x000),
    DN(C_5,1,0x000),
    DN(___,0,0x000),
    DN(C_5,1,0x000),
    DN(___,0,0x000),
    DN(C_5,1,0x000),
    DN(___,0,0x000),
    DN(C_5,1,0x000),
    DN(___,0,0x000),
    DN(C_5,1,0x000),
    DN(C_5,1,0x000),
    DN(C_5,1,0x000),
    DN(___,0,0x000),
    DN(C_5,7,0x000),
    DN(___,0,0x000),
    DN(C_5,1,0x000),
    DN(___,0,0x000),
    DN(C_5,1,0x000),
    DN(___,0,0x000),
    DN(C_5,1,0x000),
    DN(___,0,0x000),
    DN(C_5,1,0x000),
    DN(___,0,0x000),
    DN(C_5,1,0x000),
    DN(___,0,0x000),
    DN(C_5,1,0x000),
    DN(___,0,0x000),
    DN(C_5,1,0x000),
    DN(___,0,0x000),
    DN(C_5,7,0x000),
    DN(___,0,0x000),
    DN(C_5,1,0x000),
    DN(___,0,0x000),
    DN(C_5,1,0x000),
    DN(C_5,1,0x000),
    DN(C_5,1,0x000),
    DN(___,0,0x000),
};
static const unsigned char P8[] = {
    DN(C_8,2,0xC04),
    DN(___,0,0x000),
    DN(Ds8,2,0xC04),
    DN(___,0,0x000),
    DN(G_8,2,0xC04),
    DN(___,0,0x000),
    DN(Ds8,2,0xC04),
    DN(___,0,0x000),
    DN(D_8,2,0xC04),
    DN(___,0,0x000),
    DN(Ds8,2,0xC04),
    DN(___,0,0x000),
    DN(G_8,2,0xC04),
    DN(___,0,0x000),
    DN(Ds8,2,0xC04),
    DN(___,0,0x000),
    DN(D_8,2,0xC04),
    DN(___,0,0x000),
    DN(Ds8,2,0xC04),
    DN(___,0,0x000),
    DN(G_8,2,0xC04),
    DN(___,0,0x000),
    DN(Ds8,2,0xC04),
    DN(___,0,0x000),
    DN(D_8,2,0xC04),
    DN(___,0,0x000),
    DN(Ds8,2,0xC04),
    DN(___,0,0x000),
    DN(B_7,2,0xC04),
    DN(___,0,0x000),
    DN(Ds8,2,0xC04),
    DN(___,0,0x000),
    DN(C_8,2,0xC04),
    DN(___,0,0x000),
    DN(Ds8,2,0xC04),
    DN(___,0,0x000),
    DN(G_8,2,0xC04),
    DN(___,0,0x000),
    DN(Ds8,2,0xC04),
    DN(___,0,0x000),
    DN(D_8,2,0xC04),
    DN(___,0,0x000),
    DN(Ds8,2,0xC04),
    DN(___,0,0x000),
    DN(G_8,2,0xC04),
    DN(___,0,0x000),
    DN(Ds8,2,0xC04),
    DN(___,0,0x000),
    DN(D_8,2,0xC04),
    DN(___,0,0x000),
    DN(Ds8,2,0xC04),
    DN(___,0,0x000),
    DN(G_8,2,0xC04),
    DN(___,0,0x000),
    DN(Ds8,2,0xC04),
    DN(___,0,0x000),
    DN(D_8,2,0xC04),
    DN(___,0,0x000),
    DN(Ds8,2,0xC04),
    DN(___,0,0x000),
    DN(B_7,2,0xC04),
    DN(___,0,0x000),
    DN(Ds8,2,0xC04),
    DN(___,0,0x000),
};
static const unsigned char P9[] = {
    DN(C_6,1,0xC03),
    DN(___,0,0x000),
    DN(C_6,1,0xC03),
    DN(___,0,0x000),
    DN(C_6,1,0xC03),
    DN(___,0,0x000),
    DN(Cs6,1,0xC03),
    DN(___,0,0x000),
    DN(Cs6,1,0xC03),
    DN(___,0,0x000),
    DN(Cs6,1,0xC03),
    DN(___,0,0x000),
    DN(D_6,1,0xC03),
    DN(___,0,0x000),
    DN(D_6,1,0xC03),
    DN(___,0,0x000),
    DN(C_6,1,0xC03),
    DN(___,0,0x000),
    DN(C_6,1,0xC03),
    DN(___,0,0x000),
    DN(C_6,1,0xC03),
    DN(___,0,0x000),
    DN(Cs6,1,0xC03),
    DN(___,0,0x000),
    DN(Cs6,1,0xC03),
    DN(___,0,0x000),
    DN(Cs6,1,0xC03),
    DN(___,0,0x000),
    DN(D_6,1,0xC03),
    DN(___,0,0x000),
    DN(D_6,1,0xC03),
    DN(___,0,0x000),
    DN(C_6,1,0xC03),
    DN(___,0,0x000),
    DN(C_6,1,0xC03),
    DN(___,0,0x000),
    DN(C_6,1,0xC03),
    DN(___,0,0x000),
    DN(Cs6,1,0xC03),
    DN(___,0,0x000),
    DN(Cs6,1,0xC03),
    DN(___,0,0x000),
    DN(Cs6,1,0xC03),
    DN(___,0,0x000),
    DN(D_6,1,0xC03),
    DN(___,0,0x000),
    DN(D_6,1,0xC03),
    DN(___,0,0x000),
    DN(___,0,0x000),
    DN(___,0,0x000),
    DN(C_6,1,0xC03),
    DN(___,0,0x000),
    DN(C_6,1,0xC03),
    DN(___,0,0x000),
    DN(Cs6,1,0xC03),
    DN(___,0,0x000),
    DN(___,0,0x000),
    DN(___,0,0x000),
    DN(Cs6,1,0xC03),
    DN(___,0,0x000),
    DN(D_6,1,0xC03),
    DN(___,0,0x000),
    DN(Cs6,1,0xC03),
    DN(___,0,0x000),
};
static const unsigned char P10[] = {
    DN(E_3,11,0x000),
    DN(___,0,0x000),
    DN(___,0,0x000),
    DN(___,0,0x000),
    DN(___,0,0x000),
    DN(___,0,0x000),
    DN(___,0,0x000),
    DN(___,0,0x000),
    DN(___,0,0x000),
    DN(___,0,0x000),
    DN(___,0,0x000),
    DN(___,0,0x000),
    DN(___,0,0x000),
    DN(___,0,0x000),
    DN(___,0,0x000),
    DN(___,0,0x000),
    DN(Ds3,11,0x000),
    DN(___,0,0x000),
    DN(___,0,0x000),
    DN(___,0,0x000),
    DN(___,0,0x000),
    DN(___,0,0x000),
    DN(___,0,0x000),
    DN(___,0,0x000),
    DN(___,0,0x000),
    DN(___,0,0x000),
    DN(___,0,0x000),
    DN(___,0,0x000),
    DN(___,0,0x000),
    DN(___,0,0x000),
    DN(___,0,0x000),
    DN(___,0,0x000),
    DN(D_3,11,0x000),
    DN(___,0,0x000),
    DN(___,0,0x000),
    DN(___,0,0x000),
    DN(___,0,0x000),
    DN(___,0,0x000),
    DN(___,0,0x000),
    DN(___,0,0x000),
    DN(___,0,0x000),
    DN(___,0,0x000),
    DN(___,0,0x000),
    DN(___,0,0x000),
    DN(___,0,0x000),
    DN(___,0,0x000),
    DN(___,0,0x000),
    DN(___,0,0x000),
    DN(Cs3,11,0x000),
    DN(___,0,0x000),
    DN(___,0,0x000),
    DN(___,0,0x000),
    DN(___,0,0x000),
    DN(___,0,0x000),
    DN(___,0,0x000),
    DN(___,0,0x000),
    DN(___,0,0x000),
    DN(___,0,0x000),
    DN(___,0,0x000),
    DN(___,0,0x000),
    DN(C_3,11,0x000),
    DN(___,0,0x000),
    DN(___,0,0x000),
    DN(___,0,0x000),
};
static const unsigned char P11[] = {
    DN(___,0,0x000),
    DN(___,0,0x000),
    DN(___,0,0x000),
    DN(___,0,0x000),
    DN(___,0,0x000),
    DN(___,0,0x000),
    DN(___,0,0x000),
    DN(___,0,0x000),
    DN(___,0,0x000),
    DN(___,0,0x000),
    DN(___,0,0x000),
    DN(___,0,0x000),
    DN(___,0,0x000),
    DN(___,0,0x000),
    DN(___,0,0x000),
    DN(___,0,0x000),
    DN(___,0,0x000),
    DN(___,0,0x000),
    DN(___,0,0x000),
    DN(___,0,0x000),
    DN(___,0,0x000),
    DN(___,0,0x000),
    DN(___,0,0x000),
    DN(___,0,0x000),
    DN(___,0,0x000),
    DN(___,0,0x000),
    DN(___,0,0x000),
    DN(___,0,0x000),
    DN(___,0,0x000),
    DN(___,0,0x000),
    DN(___,0,0x000),
    DN(___,0,0x000),
    DN(___,0,0x000),
    DN(___,0,0x000),
    DN(___,0,0x000),
    DN(___,0,0x000),
    DN(___,0,0x000),
    DN(___,0,0x000),
    DN(___,0,0x000),
    DN(___,0,0x000),
    DN(___,0,0x000),
    DN(___,0,0x000),
    DN(___,0,0x000),
    DN(___,0,0x000),
    DN(___,0,0x000),
    DN(___,0,0x000),
    DN(___,0,0x000),
    DN(___,0,0x000),
    DN(___,0,0x000),
    DN(___,0,0x000),
    DN(___,0,0x000),
    DN(___,0,0x000),
    DN(___,0,0x000),
    DN(___,0,0x000),
    DN(___,0,0x000),
    DN(___,0,0x000),
    DN(___,0,0x000),
    DN(___,0,0x000),
    DN(___,0,0x000),
    DN(___,0,0x000),
    DN(___,0,0x000),
    DN(___,0,0x000),
    DN(___,0,0x000),
    DN(___,0,0x000),
};
static const unsigned char P12[] = {
    DN(C_8,2,0xC04),
    DN(___,0,0x000),
    DN(Ds8,2,0xC04),
    DN(___,0,0x000),
    DN(G_8,2,0xC04),
    DN(___,0,0x000),
    DN(Ds8,2,0xC04),
    DN(___,0,0x000),
    DN(D_8,2,0xC04),
    DN(___,0,0x000),
    DN(Ds8,2,0xC04),
    DN(___,0,0x000),
    DN(G_8,2,0xC04),
    DN(___,0,0x000),
    DN(Ds8,2,0xC04),
    DN(___,0,0x000),
    DN(D_8,2,0xC04),
    DN(___,0,0x000),
    DN(Ds8,2,0xC04),
    DN(___,0,0x000),
    DN(G_8,2,0xC04),
    DN(___,0,0x000),
    DN(Ds8,2,0xC04),
    DN(___,0,0x000),
    DN(D_8,2,0xC04),
    DN(___,0,0x000),
    DN(Ds8,2,0xC04),
    DN(___,0,0x000),
    DN(B_7,2,0xC04),
    DN(___,0,0x000),
    DN(Ds8,2,0xC04),
    DN(___,0,0x000),
    DN(C_8,2,0xC04),
    DN(___,0,0x000),
    DN(Ds8,2,0xC04),
    DN(___,0,0x000),
    DN(G_8,2,0xC04),
    DN(___,0,0x000),
    DN(Ds8,2,0xC04),
    DN(___,0,0x000),
    DN(D_8,2,0xC04),
    DN(___,0,0x000),
    DN(Ds8,2,0xC04),
    DN(___,0,0x000),
    DN(G_8,2,0xC04),
    DN(___,0,0x000),
    DN(Ds8,2,0xC04),
    DN(___,0,0x000),
    DN(D_8,2,0xC04),
    DN(___,0,0x000),
    DN(Ds8,2,0xC04),
    DN(___,0,0x000),
    DN(G_8,2,0xC04),
    DN(___,0,0x000),
    DN(Ds8,2,0xC04),
    DN(___,0,0x000),
    DN(D_8,2,0xC04),
    DN(___,0,0x000),
    DN(Ds8,2,0xC04),
    DN(___,0,0x000),
    DN(B_7,2,0xC04),
    DN(___,0,0x000),
    DN(___,0,0x000),
    DN(___,0,0x000),
};
static const unsigned char P13[] = {
    DN(C_6,1,0xC03),
    DN(___,0,0x000),
    DN(___,0,0x000),
    DN(___,0,0x000),
    DN(___,0,0x000),
    DN(___,0,0x000),
    DN(___,0,0x000),
    DN(___,0,0x000),
    DN(Cs6,1,0xC03),
    DN(___,0,0x000),
    DN(___,0,0x000),
    DN(___,0,0x000),
    DN(___,0,0x000),
    DN(___,0,0x000),
    DN(___,0,0x000),
    DN(___,0,0x000),
    DN(C_6,1,0xC03),
    DN(___,0,0x000),
    DN(___,0,0x000),
    DN(___,0,0x000),
    DN(___,0,0x000),
    DN(___,0,0x000),
    DN(___,0,0x000),
    DN(___,0,0x000),
    DN(Cs6,1,0xC04),
    DN(___,0,0x000),
    DN(___,0,0x000),
    DN(___,0,0x000),
    DN(___,0,0x000),
    DN(___,0,0x000),
    DN(___,0,0x000),
    DN(___,0,0x000),
    DN(C_6,1,0xC04),
    DN(___,0,0x000),
    DN(___,0,0x000),
    DN(___,0,0x000),
    DN(___,0,0x000),
    DN(___,0,0x000),
    DN(___,0,0x000),
    DN(___,0,0x000),
    DN(Cs6,1,0xC04),
    DN(___,0,0x000),
    DN(___,0,0x000),
    DN(___,0,0x000),
    DN(___,0,0x000),
    DN(___,0,0x000),
    DN(___,0,0x000),
    DN(___,0,0x000),
    DN(C_6,1,0xC05),
    DN(___,0,0x000),
    DN(___,0,0x000),
    DN(___,0,0x000),
    DN(___,0,0x000),
    DN(___,0,0x000),
    DN(___,0,0x000),
    DN(___,0,0x000),
    DN(D_6,1,0xC05),
    DN(___,0,0x000),
    DN(___,0,0x000),
    DN(___,0,0x000),
    DN(___,0,0x000),
    DN(___,0,0x000),
    DN(___,0,0x000),
    DN(___,0,0x000),
};
static const unsigned char P14[] = {
    DN(C_3,11,0x000),
    DN(___,0,0x000),
    DN(___,0,0x000),
    DN(___,0,0x000),
    DN(___,0,0x000),
    DN(___,0,0x000),
    DN(___,0,0x000),
    DN(___,0,0x000),
    DN(___,0,0x000),
    DN(___,0,0x000),
    DN(___,0,0x000),
    DN(___,0,0x000),
    DN(___,0,0x000),
    DN(___,0,0x000),
    DN(___,0,0x000),
    DN(___,0,0x000),
    DN(Cs3,11,0x000),
    DN(___,0,0x000),
    DN(___,0,0x000),
    DN(___,0,0x000),
    DN(___,0,0x000),
    DN(___,0,0x000),
    DN(___,0,0x000),
    DN(___,0,0x000),
    DN(___,0,0x000),
    DN(___,0,0x000),
    DN(___,0,0x000),
    DN(___,0,0x000),
    DN(___,0,0x000),
    DN(___,0,0x000),
    DN(___,0,0x000),
    DN(___,0,0x000),
    DN(C_3,11,0x000),
    DN(___,0,0x000),
    DN(___,0,0x000),
    DN(___,0,0x000),
    DN(___,0,0x000),
    DN(___,0,0x000),
    DN(___,0,0x000),
    DN(___,0,0x000),
    DN(___,0,0x000),
    DN(___,0,0x000),
    DN(___,0,0x000),
    DN(___,0,0x000),
    DN(___,0,0x000),
    DN(___,0,0x000),
    DN(___,0,0x000),
    DN(___,0,0x000),
    DN(F_3,11,0x000),
    DN(___,0,0x000),
    DN(___,0,0x000),
    DN(___,0,0x000),
    DN(___,0,0x000),
    DN(___,0,0x000),
    DN(___,0,0x000),
    DN(___,0,0x000),
    DN(D_3,11,0x000),
    DN(___,0,0x000),
    DN(___,0,0x000),
    DN(___,0,0x000),
    DN(Cs3,11,0x000),
    DN(___,0,0x000),
    DN(___,0,0x000),
    DN(C_3,11,0x000),
};
static const unsigned char P28[] = {
    DN(C_8,2,0xC04),
    DN(___,0,0x000),
    DN(Ds8,2,0xC04),
    DN(___,0,0x000),
    DN(G_8,2,0xC04),
    DN(___,0,0x000),
    DN(Ds8,2,0xC04),
    DN(___,0,0x000),
    DN(D_8,2,0xC04),
    DN(___,0,0x000),
    DN(Ds8,2,0xC04),
    DN(___,0,0x000),
    DN(G_8,2,0xC04),
    DN(___,0,0x000),
    DN(Ds8,2,0xC04),
    DN(___,0,0x000),
    DN(D_8,2,0xC04),
    DN(___,0,0x000),
    DN(Ds8,2,0xC04),
    DN(___,0,0x000),
    DN(G_8,2,0xC04),
    DN(___,0,0x000),
    DN(Ds8,2,0xC04),
    DN(___,0,0x000),
    DN(D_8,2,0xC04),
    DN(___,0,0x000),
    DN(Ds8,2,0xC04),
    DN(___,0,0x000),
    DN(B_7,2,0xC04),
    DN(___,0,0x000),
    DN(Ds8,2,0xC04),
    DN(___,0,0x000),
    DN(C_8,2,0xC04),
    DN(___,0,0x000),
    DN(Ds8,2,0xC04),
    DN(___,0,0x000),
    DN(G_8,2,0xC04),
    DN(___,0,0x000),
    DN(Ds8,2,0xC04),
    DN(___,0,0x000),
    DN(D_8,2,0xC04),
    DN(___,0,0x000),
    DN(Ds8,2,0xC04),
    DN(___,0,0x000),
    DN(G_8,2,0xC04),
    DN(___,0,0x000),
    DN(Ds8,2,0xC04),
    DN(___,0,0x000),
    DN(D_8,2,0xC04),
    DN(___,0,0x000),
    DN(Ds8,2,0xC04),
    DN(___,0,0x000),
    DN(G_8,2,0xC04),
    DN(___,0,0x000),
    DN(Ds8,2,0xC04),
    DN(___,0,0x000),
    DN(C_8,2,0xC04),
    DN(___,0,0x000),
    DN(Ds8,2,0xC04),
    DN(___,0,0x000),
    DN(G_8,2,0xC04),
    DN(___,0,0x000),
    DN(Ds8,2,0xC04),
    DN(___,0,0x000),
};
static const unsigned char P29[] = {
    DN(Cs6,1,0xC05),
    DN(___,0,0x000),
    DN(___,0,0x000),
    DN(___,0,0x000),
    DN(___,0,0x000),
    DN(___,0,0x000),
    DN(___,0,0x000),
    DN(___,0,0x000),
    DN(D_6,1,0xC05),
    DN(___,0,0x000),
    DN(___,0,0x000),
    DN(___,0,0x000),
    DN(___,0,0x000),
    DN(___,0,0x000),
    DN(___,0,0x000),
    DN(___,0,0x000),
    DN(Cs6,1,0xC05),
    DN(___,0,0x000),
    DN(___,0,0x000),
    DN(___,0,0x000),
    DN(___,0,0x000),
    DN(___,0,0x000),
    DN(___,0,0x000),
    DN(___,0,0x000),
    DN(D_6,1,0xC05),
    DN(___,0,0x000),
    DN(___,0,0x000),
    DN(___,0,0x000),
    DN(___,0,0x000),
    DN(___,0,0x000),
    DN(___,0,0x000),
    DN(___,0,0x000),
    DN(Cs6,1,0xC05),
    DN(___,0,0x000),
    DN(___,0,0x000),
    DN(___,0,0x000),
    DN(___,0,0x000),
    DN(___,0,0x000),
    DN(___,0,0x000),
    DN(___,0,0x000),
    DN(D_6,1,0xC05),
    DN(___,0,0x000),
    DN(___,0,0x000),
    DN(___,0,0x000),
    DN(___,0,0x000),
    DN(___,0,0x000),
    DN(___,0,0x000),
    DN(___,0,0x000),
    DN(Cs6,1,0xC05),
    DN(___,0,0x000),
    DN(___,0,0x000),
    DN(___,0,0x000),
    DN(___,0,0x000),
    DN(___,0,0x000),
    DN(___,0,0x000),
    DN(___,0,0x000),
    DN(D_6,1,0xC05),
    DN(___,0,0x000),
    DN(___,0,0x000),
    DN(___,0,0x000),
    DN(___,0,0x000),
    DN(___,0,0x000),
    DN(___,0,0x000),
    DN(___,0,0x000),
};
static const unsigned char P30[] = {
    DN(C_3,12,0x000),
    DN(___,0,0x000),
    DN(___,0,0x000),
    DN(___,0,0x000),
    DN(___,0,0x000),
    DN(___,0,0x000),
    DN(___,0,0x000),
    DN(___,0,0x000),
    DN(___,0,0x000),
    DN(___,0,0x000),
    DN(___,0,0x000),
    DN(___,0,0x000),
    DN(___,0,0x000),
    DN(___,0,0x000),
    DN(___,0,0x000),
    DN(___,0,0x000),
    DN(Cs3,12,0x000),
    DN(___,0,0x000),
    DN(___,0,0x000),
    DN(___,0,0x000),
    DN(___,0,0x000),
    DN(___,0,0x000),
    DN(___,0,0x000),
    DN(___,0,0x000),
    DN(___,0,0x000),
    DN(___,0,0x000),
    DN(___,0,0x000),
    DN(___,0,0x000),
    DN(___,0,0x000),
    DN(___,0,0x000),
    DN(___,0,0x000),
    DN(___,0,0x000),
    DN(C_3,12,0x000),
    DN(___,0,0x000),
    DN(___,0,0x000),
    DN(___,0,0x000),
    DN(___,0,0x000),
    DN(___,0,0x000),
    DN(___,0,0x000),
    DN(___,0,0x000),
    DN(___,0,0x000),
    DN(___,0,0x000),
    DN(___,0,0x000),
    DN(___,0,0x000),
    DN(___,0,0x000),
    DN(___,0,0x000),
    DN(___,0,0x000),
    DN(___,0,0x000),
    DN(D_3,12,0x000),
    DN(___,0,0x000),
    DN(___,0,0x000),
    DN(___,0,0x000),
    DN(___,0,0x000),
    DN(___,0,0x000),
    DN(___,0,0x000),
    DN(___,0,0x000),
    DN(___,0,0x000),
    DN(___,0,0x000),
    DN(___,0,0x000),
    DN(___,0,0x000),
    DN(___,0,0x000),
    DN(___,0,0x000),
    DN(___,0,0x000),
    DN(___,0,0x000),
};
static const unsigned char P52[] = {
    DN(C_7,2,0xC03),
    DN(___,0,0x000),
    DN(G_7,2,0xC03),
    DN(___,0,0x000),
    DN(B_7,2,0xC03),
    DN(___,0,0x000),
    DN(G_7,2,0xC03),
    DN(___,0,0x000),
    DN(C_7,2,0xC03),
    DN(___,0,0x000),
    DN(Fs7,2,0xC03),
    DN(___,0,0x000),
    DN(B_7,2,0xC03),
    DN(___,0,0x000),
    DN(Fs7,2,0xC03),
    DN(___,0,0x000),
    DN(C_7,2,0xC03),
    DN(___,0,0x000),
    DN(G_7,2,0xC03),
    DN(___,0,0x000),
    DN(B_7,2,0xC03),
    DN(___,0,0x000),
    DN(G_7,2,0xC03),
    DN(___,0,0x000),
    DN(C_7,2,0xC03),
    DN(___,0,0x000),
    DN(Fs7,2,0xC03),
    DN(___,0,0x000),
    DN(B_7,2,0xC03),
    DN(___,0,0x000),
    DN(Fs7,2,0xC03),
    DN(___,0,0x000),
    DN(C_7,2,0xC03),
    DN(___,0,0x000),
    DN(G_7,2,0xC03),
    DN(___,0,0x000),
    DN(B_7,2,0xC03),
    DN(___,0,0x000),
    DN(G_7,2,0xC03),
    DN(___,0,0x000),
    DN(C_7,2,0xC03),
    DN(___,0,0x000),
    DN(F_7,2,0xC03),
    DN(___,0,0x000),
    DN(B_7,2,0xC03),
    DN(___,0,0x000),
    DN(Fs7,2,0xC03),
    DN(___,0,0x000),
    DN(C_7,2,0xC03),
    DN(___,0,0x000),
    DN(G_7,2,0xC03),
    DN(___,0,0x000),
    DN(B_7,2,0xC03),
    DN(___,0,0x000),
    DN(Fs7,2,0xC03),
    DN(___,0,0x000),
    DN(C_7,2,0xC03),
    DN(___,0,0x000),
    DN(G_7,2,0xC03),
    DN(___,0,0x000),
    DN(B_7,2,0xC03),
    DN(___,0,0x000),
    DN(A_7,2,0x000),
    DN(___,0,0x000),
};

static const unsigned char itNoiseSP1[] = {
    DN(___,0,0x000),
    DN(68,0,0x000),
    DN(68,0,0x000),
    DN(68,0,0x000),
    DN(68,0,0x000),
    DN(68,0,0x000),
    DN(68,7,0x000),
    DN(___,0,0x000),
    DN(___,0,0x000),
    DN(___,0,0x000),
    DN(___,0,0x000),
    DN(___,0,0x000),
    DN(___,0,0x000),
    DN(___,0,0x000),
    DN(___,0,0x000),
    DN(___,0,0x000),
    DN(___,0,0x000),
    DN(___,0,0x000),
    DN(___,0,0x000),
    DN(___,0,0x000),
    DN(___,0,0x000),
    DN(___,0,0x000),
    DN(___,0,0x000),
    DN(___,0,0x000),
    DN(___,0,0x000),
    DN(___,0,0x000),
    DN(___,0,0x000),
    DN(___,0,0x000),
    DN(___,0,0x000),
    DN(___,0,0x000),
    DN(___,0,0x000),
    DN(___,1,0x000),
};
static const unsigned char itNoiseSP2[] = {
    DN(___,0,0x000),
    DN(67,0,0x000),
    DN(67,0,0x000),
    DN(67,0,0x000),
    DN(67,0,0x000),
    DN(67,0,0x000),
    DN(67,7,0x000),
    DN(___,0,0x000),
    DN(___,0,0x000),
    DN(___,0,0x000),
    DN(___,0,0x000),
    DN(___,0,0x000),
    DN(___,0,0x000),
    DN(___,0,0x000),
    DN(___,0,0x000),
    DN(___,0,0x000),
    DN(___,0,0x000),
    DN(___,0,0x000),
    DN(___,0,0x000),
    DN(___,0,0x000),
    DN(___,0,0x000),
    DN(___,0,0x000),
    DN(___,0,0x000),
    DN(___,0,0x000),
    DN(___,0,0x000),
    DN(___,0,0x000),
    DN(___,0,0x000),
    DN(___,0,0x000),
    DN(___,0,0x000),
    DN(___,0,0x000),
    DN(___,0,0x000),
    DN(___,1,0x000),
};
static const unsigned char itNoiseSP3[] = {
    DN(___,0,0x000),
    DN(64,0,0x000),
    DN(64,0,0x000),
    DN(64,0,0x000),
    DN(64,0,0x000),
    DN(64,0,0x000),
    DN(64,7,0x000),
    DN(___,0,0x000),
    DN(___,0,0x000),
    DN(___,0,0x000),
    DN(___,0,0x000),
    DN(___,0,0x000),
    DN(___,0,0x000),
    DN(___,0,0x000),
    DN(___,0,0x000),
    DN(___,0,0x000),
    DN(___,0,0x000),
    DN(___,0,0x000),
    DN(___,0,0x000),
    DN(___,0,0x000),
    DN(___,0,0x000),
    DN(___,0,0x000),
    DN(___,0,0x000),
    DN(___,0,0x000),
    DN(___,0,0x000),
    DN(___,0,0x000),
    DN(___,0,0x000),
    DN(___,0,0x000),
    DN(___,0,0x000),
    DN(___,0,0x000),
    DN(___,0,0x000),
    DN(___,1,0x000),
};
static const unsigned char itNoiseSP4[] = {
    DN(___,0,0x000),
    DN(68,0,0x000),
    DN(68,0,0x000),
    DN(68,0,0x000),
    DN(68,0,0x000),
    DN(68,0,0x000),
    DN(68,7,0x000),
    DN(___,0,0x000),
    DN(___,0,0x000),
    DN(___,0,0x000),
    DN(___,0,0x000),
    DN(___,0,0x000),
    DN(___,0,0x000),
    DN(___,0,0x000),
    DN(___,0,0x000),
    DN(___,0,0x000),
    DN(___,0,0x000),
    DN(___,0,0x000),
    DN(___,0,0x000),
    DN(___,0,0x000),
    DN(___,0,0x000),
    DN(___,0,0x000),
    DN(___,0,0x000),
    DN(___,0,0x000),
    DN(___,0,0x000),
    DN(___,0,0x000),
    DN(___,0,0x000),
    DN(___,0,0x000),
    DN(___,0,0x000),
    DN(___,0,0x000),
    DN(___,0,0x000),
    DN(___,1,0x000),
};
static const unsigned char itNoiseSP5[] = {
    DN(___,0,0x000),
    DN(60,0,0x000),
    DN(60,0,0x000),
    DN(60,0,0x000),
    DN(60,0,0x000),
    DN(60,0,0x000),
    DN(60,7,0x000),
    DN(___,0,0x000),
    DN(___,0,0x000),
    DN(___,0,0x000),
    DN(___,0,0x000),
    DN(___,0,0x000),
    DN(___,0,0x000),
    DN(___,0,0x000),
    DN(___,0,0x000),
    DN(___,0,0x000),
    DN(___,0,0x000),
    DN(___,0,0x000),
    DN(___,0,0x000),
    DN(___,0,0x000),
    DN(___,0,0x000),
    DN(___,0,0x000),
    DN(___,0,0x000),
    DN(___,0,0x000),
    DN(___,0,0x000),
    DN(___,0,0x000),
    DN(___,0,0x000),
    DN(___,0,0x000),
    DN(___,0,0x000),
    DN(___,0,0x000),
    DN(___,0,0x000),
    DN(___,1,0x000),
};
static const unsigned char itNoiseSP6[] = {
    DN(___,0,0x000),
    DN(52,0,0x000),
    DN(52,0,0x000),
    DN(52,0,0x000),
    DN(52,0,0x000),
    DN(52,0,0x000),
    DN(52,7,0x000),
    DN(___,0,0x000),
    DN(___,0,0x000),
    DN(___,0,0x000),
    DN(___,0,0x000),
    DN(___,0,0x000),
    DN(___,0,0x000),
    DN(___,0,0x000),
    DN(___,0,0x000),
    DN(___,0,0x000),
    DN(___,0,0x000),
    DN(___,0,0x000),
    DN(___,0,0x000),
    DN(___,0,0x000),
    DN(___,0,0x000),
    DN(___,0,0x000),
    DN(___,0,0x000),
    DN(___,0,0x000),
    DN(___,0,0x000),
    DN(___,0,0x000),
    DN(___,0,0x000),
    DN(___,0,0x000),
    DN(___,0,0x000),
    DN(___,0,0x000),
    DN(___,0,0x000),
    DN(___,1,0x000),
};
static const unsigned char itNoiseSP7[] = {
    DN(___,0,0x000),
    DN(60,0,0x000),
    DN(60,0,0x000),
    DN(60,0,0x000),
    DN(60,0,0x000),
    DN(60,0,0x000),
    DN(60,7,0x000),
    DN(___,0,0x000),
    DN(___,0,0x000),
    DN(___,0,0x000),
    DN(___,0,0x000),
    DN(___,0,0x000),
    DN(___,0,0x000),
    DN(___,0,0x000),
    DN(___,0,0x000),
    DN(___,0,0x000),
    DN(___,0,0x000),
    DN(___,0,0x000),
    DN(___,0,0x000),
    DN(___,0,0x000),
    DN(___,0,0x000),
    DN(___,0,0x000),
    DN(___,0,0x000),
    DN(___,0,0x000),
    DN(___,0,0x000),
    DN(___,0,0x000),
    DN(___,0,0x000),
    DN(___,0,0x000),
    DN(___,0,0x000),
    DN(___,0,0x000),
    DN(___,0,0x000),
    DN(___,1,0x000),
};
static const unsigned char itNoiseSP8[] = {
    DN(___,0,0x000),
    DN(60,0,0x000),
    DN(60,0,0x000),
    DN(60,0,0x000),
    DN(60,0,0x000),
    DN(60,0,0x000),
    DN(60,7,0x000),
    DN(___,0,0x000),
    DN(___,0,0x000),
    DN(___,0,0x000),
    DN(___,0,0x000),
    DN(___,0,0x000),
    DN(___,0,0x000),
    DN(___,0,0x000),
    DN(___,0,0x000),
    DN(___,0,0x000),
    DN(___,0,0x000),
    DN(___,0,0x000),
    DN(___,0,0x000),
    DN(___,0,0x000),
    DN(___,0,0x000),
    DN(___,0,0x000),
    DN(___,0,0x000),
    DN(___,0,0x000),
    DN(___,0,0x000),
    DN(___,0,0x000),
    DN(___,0,0x000),
    DN(___,0,0x000),
    DN(___,0,0x000),
    DN(___,0,0x000),
    DN(___,0,0x000),
    DN(___,1,0x000),
};
static const unsigned char itNoiseSP9[] = {
    DN(___,0,0x000),
    DN(52,0,0x000),
    DN(51,0,0x000),
    DN(51,0,0x000),
    DN(51,0,0x000),
    DN(51,0,0x000),
    DN(51,7,0x000),
    DN(___,0,0x000),
    DN(___,0,0x000),
    DN(___,0,0x000),
    DN(___,0,0x000),
    DN(___,0,0x000),
    DN(___,0,0x000),
    DN(___,0,0x000),
    DN(___,0,0x000),
    DN(___,0,0x000),
    DN(___,0,0x000),
    DN(___,0,0x000),
    DN(___,0,0x000),
    DN(___,0,0x000),
    DN(___,0,0x000),
    DN(___,0,0x000),
    DN(___,0,0x000),
    DN(___,0,0x000),
    DN(___,0,0x000),
    DN(___,0,0x000),
    DN(___,0,0x000),
    DN(___,0,0x000),
    DN(___,0,0x000),
    DN(___,0,0x000),
    DN(___,0,0x000),
    DN(___,1,0x000),
};
static const unsigned char itNoiseSP10[] = {
    DN(___,0,0x000),
    DN(68,0,0x000),
    DN(68,0,0x000),
    DN(68,0,0x000),
    DN(68,0,0x000),
    DN(68,0,0x000),
    DN(68,7,0x000),
    DN(___,0,0x000),
    DN(___,0,0x000),
    DN(___,0,0x000),
    DN(___,0,0x000),
    DN(___,0,0x000),
    DN(___,0,0x000),
    DN(___,0,0x000),
    DN(___,0,0x000),
    DN(___,0,0x000),
    DN(___,0,0x000),
    DN(___,0,0x000),
    DN(___,0,0x000),
    DN(___,0,0x000),
    DN(___,0,0x000),
    DN(___,0,0x000),
    DN(___,0,0x000),
    DN(___,0,0x000),
    DN(___,0,0x000),
    DN(___,0,0x000),
    DN(___,0,0x000),
    DN(___,0,0x000),
    DN(___,0,0x000),
    DN(___,0,0x000),
    DN(___,0,0x000),
    DN(___,1,0x000),
};
static const unsigned char itNoiseSP11[] = {
    DN(___,0,0x000),
    DN(52,0,0x000),
    DN(51,0,0x000),
    DN(51,0,0x000),
    DN(51,0,0x000),
    DN(51,0,0x000),
    DN(51,7,0x000),
    DN(___,0,0x000),
    DN(___,0,0x000),
    DN(___,0,0x000),
    DN(___,0,0x000),
    DN(___,0,0x000),
    DN(___,0,0x000),
    DN(___,0,0x000),
    DN(___,0,0x000),
    DN(___,0,0x000),
    DN(___,0,0x000),
    DN(___,0,0x000),
    DN(___,0,0x000),
    DN(___,0,0x000),
    DN(___,0,0x000),
    DN(___,0,0x000),
    DN(___,0,0x000),
    DN(___,0,0x000),
    DN(___,0,0x000),
    DN(___,0,0x000),
    DN(___,0,0x000),
    DN(___,0,0x000),
    DN(___,0,0x000),
    DN(___,0,0x000),
    DN(___,0,0x000),
    DN(___,1,0x000),
};
static const unsigned char itNoiseSP12[] = {
    DN(___,0,0x000),
    DN(63,0,0x000),
    DN(50,0,0x000),
    DN(53,0,0x000),
    DN(34,0,0x000),
    DN(36,0,0x000),
    DN(36,7,0x000),
    DN(___,0,0x000),
    DN(___,0,0x000),
    DN(___,0,0x000),
    DN(___,0,0x000),
    DN(___,0,0x000),
    DN(___,0,0x000),
    DN(___,0,0x000),
    DN(___,0,0x000),
    DN(___,0,0x000),
    DN(___,0,0x000),
    DN(___,0,0x000),
    DN(___,0,0x000),
    DN(___,0,0x000),
    DN(___,0,0x000),
    DN(___,0,0x000),
    DN(___,0,0x000),
    DN(___,0,0x000),
    DN(___,0,0x000),
    DN(___,0,0x000),
    DN(___,0,0x000),
    DN(___,0,0x000),
    DN(___,0,0x000),
    DN(___,0,0x000),
    DN(___,0,0x000),
    DN(___,1,0x000),
};
static const unsigned char itNoiseSP13[] = {
    DN(___,0,0x000),
    DN(49,0,0x000),
    DN(47,0,0x000),
    DN(45,0,0x000),
    DN(43,0,0x000),
    DN(43,0,0x000),
    DN(43,7,0x000),
    DN(___,0,0x000),
    DN(___,0,0x000),
    DN(___,0,0x000),
    DN(___,0,0x000),
    DN(___,0,0x000),
    DN(___,0,0x000),
    DN(___,0,0x000),
    DN(___,0,0x000),
    DN(___,0,0x000),
    DN(___,0,0x000),
    DN(___,0,0x000),
    DN(___,0,0x000),
    DN(___,0,0x000),
    DN(___,0,0x000),
    DN(___,0,0x000),
    DN(___,0,0x000),
    DN(___,0,0x000),
    DN(___,0,0x000),
    DN(___,0,0x000),
    DN(___,0,0x000),
    DN(___,0,0x000),
    DN(___,0,0x000),
    DN(___,0,0x000),
    DN(___,0,0x000),
    DN(___,1,0x000),
};
static const unsigned char itNoiseSP14[] = {
    DN(___,0,0x000),
    DN(44,0,0x000),
    DN(43,0,0x000),
    DN(42,0,0x000),
    DN(41,0,0x000),
    DN(40,0,0x000),
    DN(40,7,0x000),
    DN(___,0,0x000),
    DN(___,0,0x000),
    DN(___,0,0x000),
    DN(___,0,0x000),
    DN(___,0,0x000),
    DN(___,0,0x000),
    DN(___,0,0x000),
    DN(___,0,0x000),
    DN(___,0,0x000),
    DN(___,0,0x000),
    DN(___,0,0x000),
    DN(___,0,0x000),
    DN(___,0,0x000),
    DN(___,0,0x000),
    DN(___,0,0x000),
    DN(___,0,0x000),
    DN(___,0,0x000),
    DN(___,0,0x000),
    DN(___,0,0x000),
    DN(___,0,0x000),
    DN(___,0,0x000),
    DN(___,0,0x000),
    DN(___,0,0x000),
    DN(___,0,0x000),
    DN(___,1,0x000),
};
static const unsigned char* const order1[] = {P28,P28,P0,P52,P4,P4,P0,P0,P4,P4,P8,P12};
static const unsigned char* const order2[] = {P29,P29,P1,P1,P5,P5,P1,P1,P5,P5,P9,P13};
static const unsigned char* const order3[] = {P30,P30,P2,P2,P6,P6,P2,P2,P6,P6,P10,P14};
static const unsigned char* const order4[] = {P11,P11,P3,P3,P7,P7,P3,P3,P7,P7,P11,P11};

static const hUGEDutyInstr_t duty_instruments[] = {
    {0,64,181,0,128},
    {0,128,181,0,128},
    {0,0,9,0,192},
    {0,48,184,0,192},
    {0,112,184,0,192},
    {0,176,184,0,192},
    {0,0,184,0,128},
    {0,64,184,0,128},
    {0,128,184,0,128},
    {0,192,184,0,128},
    {28,128,178,0,192},
    {25,128,181,0,128},
    {71,0,183,0,128},
    {21,96,183,0,192},
    {0,128,8,0,128},
};
static const hUGEWaveInstr_t wave_instruments[] = {
    {128,32,1,0,192},
    {128,32,2,0,192},
    {128,32,3,0,192},
    {128,32,4,0,192},
    {128,32,5,0,192},
    {128,32,6,0,192},
    {0,32,7,0,128},
    {0,32,8,0,128},
    {0,32,9,0,128},
    {0,32,10,0,128},
    {0,32,11,0,128},
    {0,32,12,0,128},
    {0,32,13,0,128},
    {0,32,14,0,128},
    {0,32,15,0,128},
};
static const hUGENoiseInstr_t noise_instruments[] = {
    {145,itNoiseSP1,112,0,0},
    {145,itNoiseSP2,96,0,0},
    {145,itNoiseSP3,0,0,0},
    {146,itNoiseSP4,0,0,0},
    {148,itNoiseSP5,0,0,0},
    {148,itNoiseSP6,0,0,0},
    {177,itNoiseSP7,0,0,0},
    {177,itNoiseSP8,128,0,0},
    {177,itNoiseSP9,128,0,0},
    {145,itNoiseSP10,128,0,0},
    {178,itNoiseSP11,64,0,0},
    {177,itNoiseSP12,86,0,0},
    {183,itNoiseSP13,0,0,0},
    {183,itNoiseSP14,128,0,0},
    {8,0,0,0,0},
};

static const unsigned char waves[] = {
    136,136,136,136,136,136,136,136,136,136,136,136,136,136,136,136,
    255,255,0,0,0,0,0,0,0,0,0,0,0,0,0,0,
    255,255,255,255,0,0,0,0,0,0,0,0,0,0,0,0,
    255,255,255,255,255,0,0,0,0,0,0,0,0,0,0,0,
    255,255,255,255,255,255,0,0,0,0,0,0,0,0,0,0,
    255,255,255,255,255,255,255,0,0,0,0,0,0,0,0,0,
    255,255,255,255,255,255,255,255,0,0,0,0,0,0,0,0,
    204,204,204,204,204,204,204,204,51,51,51,51,51,51,51,51,
    170,170,170,170,170,170,170,170,85,85,85,85,85,85,85,85,
    136,136,136,136,136,136,136,136,119,119,119,119,119,119,119,119,
    255,255,204,204,255,255,204,204,0,0,51,51,0,0,51,51,
    254,220,186,152,118,84,50,16,1,35,69,103,137,171,205,239,
    255,255,186,152,169,135,50,16,52,86,69,103,188,222,205,239,
    255,238,221,204,187,170,153,136,119,102,85,68,51,34,17,0,
    255,254,253,252,251,250,249,248,231,214,197,180,163,146,129,112,
    0,0,0,0,0,0,0,0,0,0,0,0,0,0,0,0,
};

const hUGESong_t MainMenuSong = {20, &order_cnt, order1, order2, order3,order4, duty_instruments, wave_instruments, noise_instruments, NULL, waves};
